<svg width="32" height="32" viewBox="0 0 32 32" fill="none" xmlns="http://www.w3.org/2000/svg">
<path d="M19.3353 14.2236C18.2936 14.2236 17.4713 15.0144 17.4713 15.9987C17.4713 16.9831 18.3119 17.7738 19.3353 17.7738C20.377 17.7738 21.1994 16.9831 21.1994 15.9987C21.1994 15.0144 20.3587 14.2236 19.3353 14.2236ZM12.6649 14.2236C11.6232 14.2236 10.8008 15.0144 10.8008 15.9987C10.8008 16.9831 11.6414 17.7738 12.6649 17.7738C13.7065 17.7738 14.5289 16.9831 14.5289 15.9987C14.5472 15.0144 13.7065 14.2236 12.6649 14.2236Z" fill="black"/>
<path d="M28.2353 0H3.74643C1.68132 0 0 1.48462 0 3.30812V24.9319C0 26.7554 1.68132 28.24 3.74643 28.24H24.4706L23.502 25.2869L25.8412 27.1911L28.0525 28.9823L32 32V3.30812C31.9817 1.48462 30.3004 0 28.2353 0ZM21.181 20.8976C21.181 20.8976 20.5231 20.2037 19.9749 19.6067C22.3689 19.0096 23.2827 17.7025 23.2827 17.7025C22.5334 18.1382 21.8207 18.4448 21.181 18.6546C20.2673 18.9934 19.3901 19.2032 18.5311 19.3485C16.7767 19.6389 15.1685 19.5582 13.7978 19.3323C12.7561 19.1548 11.8607 18.9128 11.1114 18.6384C10.691 18.4932 10.2342 18.3157 9.77727 18.0898C9.72244 18.0575 9.66762 18.0414 9.61279 18.0091C9.57624 17.993 9.55797 17.9768 9.53969 17.9768C9.21074 17.8154 9.02798 17.7025 9.02798 17.7025C9.02798 17.7025 9.9052 18.9773 12.2262 19.5905C11.6779 20.2037 11.0017 20.9138 11.0017 20.9138C6.96288 20.8008 5.42775 18.4771 5.42775 18.4771C5.42775 13.3293 8.05939 9.14979 8.05939 9.14979C10.691 7.42311 13.1765 7.47152 13.1765 7.47152L13.3592 7.66517C10.0697 8.48816 8.5711 9.763 8.5711 9.763C8.5711 9.763 8.97316 9.56935 9.64934 9.31116C11.6048 8.55271 13.1582 8.35907 13.7978 8.29451C13.9075 8.27839 13.9989 8.26224 14.1085 8.26224C15.2233 8.13314 16.4843 8.10087 17.8001 8.22997C19.5363 8.40747 21.4003 8.85932 23.301 9.763C23.301 9.763 21.8572 8.55271 18.7504 7.72971L19.0063 7.47152C19.0063 7.47152 21.51 7.42311 24.1234 9.14979C24.1234 9.14979 26.755 13.3293 26.755 18.4771C26.755 18.4609 25.2199 20.7847 21.181 20.8976V20.8976Z" fill="black"/>
</svg>
