<svg width="32" height="32" viewBox="0 0 32 32" fill="none" xmlns="http://www.w3.org/2000/svg">
<path d="M31.9906 0H0.009375C0.00419733 0 0 0.00419733 0 0.009375V31.9906C0 31.9958 0.00419733 32 0.009375 32H31.9906C31.9958 32 32 31.9958 32 31.9906V0.009375C32 0.00419733 31.9958 0 31.9906 0Z" fill="black"/>
<path d="M27.12 8H4.88C4.87724 8 4.875 8.00224 4.875 8.005V23.995C4.875 23.9978 4.87724 24 4.88 24H27.12C27.1228 24 27.125 23.9978 27.125 23.995V8.005C27.125 8.00224 27.1228 8 27.12 8Z" fill="white"/>
<path d="M27.125 24L19.0625 16M27.125 8L16.8125 18.25C16.375 18.75 15.625 18.75 15.1875 18.25L4.875 8H27.125ZM4.875 24L12.9375 16L4.875 24Z" stroke="black" stroke-width="1.875"/>
</svg>
