<svg width="32" height="32" viewBox="0 0 32 32" xmlns="http://www.w3.org/2000/svg">
<path fill-rule="evenodd" clip-rule="evenodd" d="M0.009375 0H31.9906C31.9958 0 32 0.00419733 32 0.009375V31.9906C32 31.9958 31.9958 32 31.9906 32H0.009375C0.00419733 32 0 31.9958 0 31.9906V0.009375C0 0.00419733 0.00419733 0 0.009375 0ZM4.875 22.6793V9.32181L11.6002 16.0062L4.875 22.6793ZM19.0699 17.3281L25.794 24H6.20601L12.9301 17.3281L14.5068 18.8952C15.3132 19.7849 16.6868 19.7849 17.4932 18.8952L19.0699 17.3281ZM27.125 9.32181V22.6793L20.3998 16.0062L27.125 9.32181ZM7.14809 8.9375L15.8484 17.5851L15.8715 17.6081L15.893 17.6327C15.9315 17.6766 15.97 17.6875 16 17.6875C16.03 17.6875 16.0685 17.6766 16.107 17.6327L16.1285 17.6081L16.1516 17.5851L24.8519 8.9375H7.14809Z"/>
</svg>
