<svg width="127" height="127" viewBox="0 0 127 127"  xmlns="http://www.w3.org/2000/svg">
<path d="M4.69731 2.12612L122.303 2.12612C123.723 2.12612 124.874 3.27728 124.874 4.69731V122.303C124.874 123.723 123.723 124.874 122.303 124.874H4.69731C3.27728 124.874 2.12612 123.723 2.12612 122.303L2.12612 4.69731C2.12612 3.27728 3.27728 2.12612 4.69731 2.12612Z" fill="#F8F9FC" stroke="#1B5BF5" stroke-width="4.25223"/>
<path d="M34.0156 26.4387H49.8315V31.2334H39.2099V36.0281H49.0324V40.8228H39.2099V50.0127H34.0156V26.4387Z" fill="#1B5BF5"/>
<path d="M78.5959 27.4377H83.7902V46.217H93.4129V51.0117H78.5959V27.4377Z" fill="#1B5BF5"/>
<path d="M51.2208 88.4032C51.2208 89.8016 51.01 91.0891 50.5882 92.2656C50.1664 93.4421 49.5338 94.4632 48.6903 95.3289C47.869 96.1946 46.8368 96.8716 45.5937 97.36C44.3506 97.8483 42.9189 98.0925 41.2984 98.0925C39.6558 98.0925 38.213 97.8483 36.9699 97.36C35.7268 96.8716 34.6835 96.1946 33.84 95.3289C33.0187 94.4632 32.3972 93.4421 31.9754 92.2656C31.5536 91.0891 31.3428 89.8016 31.3428 88.4032V73.9192H36.537V88.2034C36.537 88.9359 36.648 89.613 36.87 90.2345C37.1142 90.856 37.4471 91.3999 37.8689 91.866C38.2907 92.31 38.7901 92.6652 39.3672 92.9315C39.9666 93.1757 40.6103 93.2978 41.2984 93.2978C41.9866 93.2978 42.6192 93.1757 43.1964 92.9315C43.7735 92.6652 44.2729 92.31 44.6947 91.866C45.1165 91.3999 45.4383 90.856 45.6603 90.2345C45.9045 89.613 46.0266 88.9359 46.0266 88.2034V73.9192H51.2208V88.4032Z" fill="#1B5BF5"/>
<path d="M81.0281 85.1734L73.2367 73.9192H79.7628L84.7906 82.1767L89.6186 73.9192H95.9116L88.2867 85.0735L96.8107 97.4932H90.2845L84.5242 88.0036L78.9304 97.4932H72.7705L81.0281 85.1734Z" fill="#1B5BF5"/>
</svg>
