<svg width="286" height="290" viewBox="0 0 286 290" fill="none" xmlns="http://www.w3.org/2000/svg">
<path d="M-4 131.491L127.363 0.12793C113.304 1.40823 99.5066 4.72755 86.404 9.98159L5.85368 90.5437C0.593532 103.64 -2.72605 117.435 -4 131.491Z" fill="#BDD0FF"/>
<path d="M1.18638 185.509L181.37 5.32604C172.864 2.84748 164.148 1.15487 155.333 0.269531L-3.87012 159.472C-2.97223 168.286 -1.27985 177 1.18638 185.509Z" fill="#BDD0FF"/>
<path d="M20.0801 225.82L221.692 24.2674C215.379 20.0044 208.738 16.2484 201.831 13.0347L8.84741 205.959C12.0651 212.864 15.8209 219.505 20.0801 225.82Z" fill="#BDD0FF"/>
<path d="M37.9254 247.496C41.2492 250.82 44.7027 253.932 48.2505 256.866L252.703 52.3908C249.768 48.8548 246.668 45.3777 243.344 42.0538C241.427 40.1444 239.462 38.3017 237.451 36.5259L32.3621 241.614C34.1772 243.618 36.0159 245.587 37.9254 247.496Z" fill="#BDD0FF"/>
<path d="M85.237 279.084L275.003 89.377C272.05 82.2451 268.535 75.3596 264.489 68.7856L64.7046 268.57C71.2554 272.62 78.1217 276.136 85.237 279.084Z" fill="#BDD0FF"/>
<path d="M133.657 289.858L285.705 137.809C285.265 128.639 283.958 119.53 281.804 110.605L106.465 285.98C115.386 288.126 124.491 289.425 133.657 289.858Z" fill="#BDD0FF"/>
<path d="M210.73 272.012L267.884 214.859C275.99 200.152 281.475 184.146 284.09 167.559L163.418 288.231C180.01 285.611 196.02 280.123 210.73 272.012Z" fill="#BDD0FF"/>
</svg>
