<svg width="116" height="108" viewBox="0 0 116 108" fill="none" xmlns="http://www.w3.org/2000/svg">
<path d="M115.026 50.4838C115.028 46.4394 114.605 42.4059 113.765 38.4496L69.5298 -5.73871C65.5746 -6.58524 61.5404 -7.00802 57.4956 -6.99988C54.588 -6.99947 51.6844 -6.78278 48.8088 -6.35161L114.343 59.1824C114.787 56.3039 115.015 53.3963 115.026 50.4838Z" fill="#316EFF" fill-opacity="0.7"/>
<path d="M21.2278 5.87152L102.061 86.7518C105.162 82.9584 107.765 78.7834 109.805 74.3287L33.6981 -1.8252C29.2294 0.196826 25.0385 2.78349 21.2278 5.87152Z" fill="#316EFF" fill-opacity="0.7"/>
<path d="M4.23145 28.7257L79.2184 103.713C83.7868 101.843 88.0966 99.3946 92.0423 96.4285L11.5628 15.9136C8.57666 19.8502 6.11243 24.1567 4.23145 28.7257Z" fill="#316EFF" fill-opacity="0.7"/>
<path d="M57.4955 107.98C59.5031 107.979 61.5094 107.877 63.5067 107.673L0.306466 44.4731C0.103245 46.4705 0.000951842 48.4767 0 50.4844C0.000637679 55.9291 0.774478 61.3461 2.29838 66.5732L41.4067 105.681C46.6339 107.205 52.0509 107.978 57.4955 107.98Z" fill="#316EFF" fill-opacity="0.7"/>
</svg>
