<svg width="116" height="82" viewBox="0 0 116 82" fill="none" xmlns="http://www.w3.org/2000/svg">
<path d="M115.154 24.2993C115.156 20.2548 114.733 16.2213 113.893 12.2651L69.6573 -31.9233C65.702 -32.7698 61.6679 -33.1926 57.6231 -33.1845C54.7154 -33.184 51.8118 -32.9673 48.9363 -32.5362L114.47 32.9978C114.914 30.1194 115.143 27.2118 115.154 24.2993Z" fill="#316EFF" fill-opacity="0.7"/>
<path d="M21.3552 -20.3131L102.188 60.5673C105.29 56.7738 107.892 52.5988 109.932 48.1441L33.8255 -28.0098C29.3569 -25.9877 25.1659 -23.4011 21.3552 -20.3131Z" fill="#316EFF" fill-opacity="0.7"/>
<path d="M4.35889 2.54114L79.3459 77.5281C83.9142 75.6581 88.224 73.21 92.1698 70.2439L11.6902 -10.271C8.7041 -6.33434 6.23987 -2.02789 4.35889 2.54114Z" fill="#316EFF" fill-opacity="0.7"/>
<path d="M57.623 81.7953C59.6306 81.7944 61.6369 81.6921 63.6342 81.4888L0.433907 18.2886C0.230686 20.2859 0.128393 22.2922 0.127441 24.2998C0.128079 29.7445 0.901919 35.1615 2.42583 40.3886L41.5341 79.4969C46.7614 81.02 52.1783 81.7939 57.623 81.7953Z" fill="#316EFF" fill-opacity="0.7"/>
</svg>
